<svg width="21" height="17" viewBox="0 0 21 17" fill="none" xmlns="http://www.w3.org/2000/svg">
<g clip-path="url(#clip0_62_2)">
<g filter="url(#filter0_d_62_2)">
<path d="M8.21745 4.32807C8.21745 5.54606 7.90245 6.93207 7.02045 9.38907C6.60045 10.6491 6.11745 12.0981 6.11745 12.9801C6.11745 13.6311 6.47445 14.0301 7.02045 14.0301C8.21745 14.0301 9.41445 12.0141 10.4015 8.40207L11.3675 4.79006C11.8715 2.90007 12.2705 1.89206 12.6485 1.03107C12.7325 0.821064 14.6015 0.695065 14.8745 0.695065C15.1265 0.695065 15.2735 0.695065 15.2735 0.863065C15.2735 0.947065 14.9375 2.16506 14.7905 2.66906L13.4045 8.02407C12.9005 10.0401 12.5855 11.7621 12.5855 12.6231C12.5855 13.4631 12.9635 14.0091 13.5725 14.0091C14.7905 14.0091 18.1295 10.7541 18.1295 6.65907C18.1295 5.46207 17.7935 4.11806 17.2055 2.87907C17.0375 2.56406 16.9535 2.31207 16.9535 2.20707C16.9535 1.55607 18.6125 0.695065 19.0115 0.695065C19.4945 0.695065 20.0615 2.24906 20.0615 3.57207C20.0615 9.38907 15.3785 15.5421 12.2705 15.5421C11.7455 15.5421 9.89745 15.3741 9.96045 12.0771C9.22545 13.4421 7.92345 15.5421 5.94945 15.5421C4.41645 15.5421 3.42945 14.3241 3.42945 12.4971C3.42945 11.1321 4.01745 9.22107 4.60545 7.54107C5.13045 6.05007 5.71845 4.18107 5.71845 3.02606C5.71845 2.22807 5.21445 1.61907 4.52145 1.61907C3.45045 1.61907 2.16945 3.21506 2.16945 4.55907C2.16945 5.75607 3.15645 6.26007 3.15645 6.63807C3.15645 6.78507 2.42145 7.85607 1.95945 7.85607C1.77045 7.85607 0.76245 7.49907 0.76245 5.90307C0.76245 3.25707 2.94645 0.674065 5.21445 0.674065C6.91545 0.674065 8.21745 2.24906 8.21745 4.32807Z" fill="white"/>
</g>
</g>
<defs>
<filter id="filter0_d_62_2" x="0.762451" y="0.674072" width="19.299" height="15.668" filterUnits="userSpaceOnUse" color-interpolation-filters="sRGB">
<feFlood flood-opacity="0" result="BackgroundImageFix"/>
<feColorMatrix in="SourceAlpha" type="matrix" values="0 0 0 0 0 0 0 0 0 0 0 0 0 0 0 0 0 0 127 0" result="hardAlpha"/>
<feOffset dy="0.8"/>
<feComposite in2="hardAlpha" operator="out"/>
<feColorMatrix type="matrix" values="0 0 0 0 0 0 0 0 0 0 0 0 0 0 0 0 0 0 0.2 0"/>
<feBlend mode="normal" in2="BackgroundImageFix" result="effect1_dropShadow_62_2"/>
<feBlend mode="normal" in="SourceGraphic" in2="effect1_dropShadow_62_2" result="shape"/>
</filter>
<clipPath id="clip0_62_2">
<rect width="21" height="17" fill="white"/>
</clipPath>
</defs>
</svg>
